<svg xmlns="http://www.w3.org/2000/svg" xmlns:xlink="http://www.w3.org/1999/xlink" width="2048" zoomAndPan="magnify" viewBox="0 0 1536 1097.999945" height="1464" preserveAspectRatio="xMidYMid meet" version="1.0"><defs><clipPath id="87b09f712b"><path d="M 279.21875 51.089844 L 1256.46875 51.089844 L 1256.46875 1047 L 279.21875 1047 Z M 279.21875 51.089844 " clip-rule="nonzero"/></clipPath></defs><g clip-path="url(#87b09f712b)"><path fill="#ffffff" d="M 887.777344 51.097656 C 884.628906 62.757812 881.476562 73.035156 879.105469 83.488281 C 865.75 142.261719 852.75 201.121094 839.230469 259.855469 C 834.738281 279.378906 838.398438 297.089844 852.042969 310.992188 C 868.5 327.828125 885.980469 343.523438 904.484375 358.074219 C 932.519531 380.007812 964.59375 394.066406 998.996094 403.675781 C 1021.464844 409.957031 1043.164062 410.078125 1063.476562 399.695312 C 1098.085938 382 1132.074219 363.027344 1165.710938 343.539062 C 1177.039062 336.976562 1186.085938 326.585938 1197.039062 319.230469 C 1201.6875 316.105469 1208.558594 316.28125 1214.417969 314.960938 C 1213.929688 321.167969 1215.808594 329.570312 1212.488281 333.15625 C 1204.003906 342.34375 1194.367188 350.101562 1183.582031 356.429688 C 1155.59375 372.683594 1127.46875 388.917969 1098.292969 402.847656 C 1074.875 414.03125 1063.875 432.71875 1061.535156 456.246094 C 1055.628906 515.574219 1049.394531 575.371094 1064.585938 634.097656 C 1073.558594 668.789062 1086.238281 702.570312 1098.296875 736.382812 C 1100.496094 742.550781 1106.808594 748.84375 1112.832031 751.796875 C 1153.714844 771.839844 1195.113281 790.839844 1236.140625 810.605469 C 1243.511719 814.15625 1249.933594 819.671875 1256.792969 824.28125 C 1256.269531 826.304688 1255.742188 828.324219 1255.214844 830.34375 C 1248.644531 830.507812 1241.335938 832.617188 1235.632812 830.472656 C 1214.4375 822.492188 1193.488281 813.710938 1172.992188 804.066406 C 1156.394531 796.257812 1140.351562 787.167969 1124.476562 777.933594 C 1107.054688 767.804688 1089.488281 768.152344 1071.890625 776.1875 C 1008.773438 804.980469 946.984375 836.148438 895.179688 883.453125 C 884.835938 892.957031 875.742188 903.53125 867.898438 915.183594 C 855.335938 933.800781 847.285156 953.890625 853.71875 977.472656 C 857.773438 992.332031 859.964844 1007.695312 862.921875 1022.847656 C 863.761719 1027.144531 865.945312 1032.070312 864.640625 1035.667969 C 863.765625 1037.941406 862.488281 1039.964844 860.808594 1041.734375 C 859.128906 1043.503906 857.175781 1044.886719 854.949219 1045.878906 C 852.171875 1046.863281 845.609375 1043.691406 844.199219 1040.738281 C 840.605469 1032.6875 837.90625 1024.347656 836.097656 1015.714844 C 832.269531 999.289062 828.8125 982.777344 825.722656 966.183594 C 823.550781 954.601562 817.109375 946.359375 808.105469 939.257812 C 778.519531 915.917969 746.90625 895.644531 712.636719 880.191406 C 665.011719 858.703125 615.539062 841.753906 564.09375 832.472656 C 531.6875 826.625 498.542969 824.5 465.636719 821.882812 C 441.15625 819.9375 419.984375 829.097656 400.21875 843.605469 C 364.070312 870.140625 327.101562 895.5625 290.398438 921.34375 C 288.183594 922.902344 285.300781 923.5 279.933594 925.691406 C 282.4375 910.804688 288.8125 899.964844 297.597656 892.449219 C 311.410156 880.640625 327.3125 871.269531 342.378906 860.933594 C 374.5 838.878906 407.527344 818.015625 438.246094 794.171875 C 447.453125 787.03125 451.84375 772.117188 455.644531 759.910156 C 464.507812 731.488281 465.773438 702.488281 461.03125 672.730469 C 455.394531 637.320312 442.789062 604.59375 426.480469 573.242188 C 420.488281 561.734375 411.480469 551.269531 401.96875 542.335938 C 396.777344 537.460938 387.824219 535.457031 380.261719 534.453125 C 354.050781 530.972656 327.664062 528.816406 301.4375 525.449219 C 292.148438 524.257812 282.1875 522.351562 279.214844 507.445312 C 287.234375 506.628906 294.949219 504.421875 302.265625 505.332031 C 342.367188 510.324219 382.59375 514.863281 422.339844 521.992188 C 450.289062 527 471.53125 515.488281 491.117188 499.4375 C 532.222656 465.773438 561.429688 424.742188 566.796875 369.785156 C 568.078125 356.6875 572.535156 343.917969 574.195312 330.816406 C 576.980469 308.875 571.363281 289.203125 558.148438 270.921875 C 533.703125 237.09375 510.378906 202.449219 486.628906 168.109375 C 483.699219 163.875 480.015625 159.761719 478.582031 155.011719 C 477.574219 151.664062 479.789062 147.347656 480.566406 143.460938 C 483.695312 144.742188 487.890625 145.148438 489.785156 147.449219 C 501.453125 161.628906 513.09375 175.878906 523.816406 190.769531 C 548.304688 224.765625 573.734375 258.234375 595.890625 293.714844 C 609.820312 316.027344 628.40625 323.410156 652.464844 324.496094 C 690.960938 326.230469 726.605469 315.578125 761.371094 300.65625 C 767.453125 298.046875 773.492188 295.285156 779.355469 292.226562 C 803.71875 279.511719 822.683594 262.988281 828.21875 233.710938 C 837.496094 184.617188 848.648438 135.882812 858.5 86.894531 C 858.917969 84.933594 859.453125 83.003906 860.101562 81.109375 C 860.746094 79.214844 861.503906 77.363281 862.371094 75.554688 C 863.242188 73.75 864.210938 72 865.289062 70.3125 C 866.363281 68.621094 867.535156 67 868.804688 65.449219 C 870.074219 63.898438 871.429688 62.429688 872.871094 61.039062 C 874.316406 59.648438 875.835938 58.351562 877.433594 57.140625 C 879.03125 55.933594 880.695312 54.824219 882.425781 53.8125 C 884.15625 52.800781 885.941406 51.898438 887.777344 51.097656 Z M 843.121094 922.429688 C 848.816406 916.195312 852.261719 913.464844 854.394531 909.933594 C 873.570312 878.164062 901.535156 855.335938 932.386719 836.4375 C 973.109375 811.496094 1015.097656 788.625 1056.46875 764.726562 C 1060.492188 762.40625 1063.976562 759.140625 1071.183594 753.6875 C 1033.78125 735.484375 999.414062 719.183594 965.492188 702 C 954.96875 696.667969 945.46875 698.101562 935.976562 702.507812 C 898.0625 720.078125 866.097656 743.585938 842.972656 780.292969 C 825.660156 807.777344 817.484375 834.070312 826.949219 865.332031 C 832.367188 883.277344 837.183594 901.40625 843.121094 922.429688 Z M 809.8125 924.089844 L 815.164062 922.382812 C 811.921875 902.296875 807.1875 882.3125 805.898438 862.101562 C 804.820312 845.230469 795.6875 835.667969 783.863281 826.191406 C 758.175781 805.609375 728.035156 794.316406 697.90625 782.441406 C 648.703125 763.050781 598.019531 753.117188 545.144531 755.039062 C 540.039062 755.191406 535.238281 756.476562 530.738281 758.898438 C 510.40625 770.507812 490.414062 782.710938 470.246094 794.613281 C 466.191406 797.007812 461.910156 799.027344 457.734375 801.21875 C 587.945312 815.40625 707.070312 845.5625 809.8125 924.089844 Z M 1048.1875 434.160156 C 1021.003906 446.183594 997.917969 460.28125 985.132812 488.664062 C 967.902344 526.914062 962.78125 567.488281 960.324219 608.308594 C 959.070312 629.101562 964.15625 650.28125 966.445312 671.277344 C 967.53125 681.226562 973.980469 685.777344 982.675781 689.941406 C 1004.457031 700.378906 1025.535156 712.269531 1047.039062 723.296875 C 1055.609375 727.691406 1064.566406 731.339844 1073.347656 735.328125 L 1076.949219 731.667969 C 1062.023438 684.261719 1045.007812 636.976562 1044.34375 586.976562 C 1043.683594 536.644531 1046.722656 486.242188 1048.1875 434.160156 Z M 424.910156 540.320312 C 446.410156 579.003906 463.667969 613.449219 471.617188 652.0625 C 479.671875 691.160156 478.707031 729.835938 469.976562 769.433594 C 487.984375 760.269531 505.132812 749.71875 521.429688 737.773438 C 529.929688 731.414062 539.601562 723.441406 543.035156 714.097656 C 552.085938 689.457031 561.421875 664.066406 564.460938 638.25 C 570.125 590.085938 545.941406 560.566406 498.035156 550.625 C 482.214844 547.339844 466.34375 544.234375 450.402344 541.632812 C 443.453125 540.5 436.257812 540.84375 424.910156 540.320312 Z M 590.25 324.292969 C 578.683594 366.542969 577.066406 406.519531 557.660156 442.152344 C 538.21875 477.851562 507.519531 501.773438 472.703125 528.902344 C 486.171875 530.976562 495.0625 530.839844 502.742188 533.824219 C 520.535156 540.734375 536.394531 535.425781 551.015625 526.816406 C 602.492188 496.507812 626.480469 451.503906 624.109375 391.253906 C 623.058594 364.617188 610.128906 346.105469 590.25 324.292969 Z M 1014.410156 427.363281 C 979.980469 411.25 945.738281 396.664062 912.875 379.4375 C 879.605469 362 854.429688 334.117188 828.371094 304.816406 C 825.265625 317.84375 818.410156 329.625 821.042969 338.644531 C 830.027344 369.453125 842.101562 399.003906 866.378906 422.375 C 909.320312 463.695312 968.855469 466.371094 1014.410156 427.363281 Z M 564.40625 738.554688 C 604.867188 741.359375 644.355469 749.113281 682.871094 761.808594 C 721.460938 774.304688 759.816406 788.710938 794.746094 816.304688 C 793.824219 807.65625 793.019531 802.671875 792.800781 797.664062 C 791.144531 759.941406 771.96875 734.929688 737.808594 720.027344 C 708.484375 707.238281 677.433594 702.527344 646.066406 699.632812 C 642.03125 699.261719 638.023438 699.449219 634.042969 700.195312 C 630.0625 700.941406 626.257812 702.21875 622.632812 704.023438 C 602.769531 714.6875 583.753906 726.929688 564.40625 738.554688 Z M 973.042969 482.347656 C 971.542969 480.6875 970.042969 479.027344 968.542969 477.371094 C 949.183594 490.195312 926.125 499.832031 911.546875 516.769531 C 897.925781 532.597656 891.390625 555.609375 885.257812 576.496094 C 879.0625 597.59375 886.644531 618.523438 894.003906 638.710938 C 899.53125 653.863281 914.675781 656.6875 926.316406 663.550781 C 933.707031 667.910156 941.375 675.78125 953.285156 670.714844 C 943.359375 606.035156 952.589844 543.609375 973.042969 482.347656 Z M 632.875 336.832031 L 629.570312 342.230469 C 634.269531 350.078125 637.136719 361.226562 644.0625 365.070312 C 657.90625 372.746094 673.628906 379.386719 689.183594 381.171875 C 732.667969 386.152344 767.828125 368.289062 795.507812 335.335938 C 804.425781 324.722656 809.582031 312.324219 806.445312 296.167969 C 750.789062 322.761719 696.441406 348.976562 632.875 336.832031 Z M 930.09375 688.46875 C 922.347656 684.355469 918.257812 682.742188 914.800781 680.25 C 898.964844 668.832031 884.621094 668.429688 865.441406 676.726562 C 840.289062 687.605469 822.972656 702.277344 810.640625 726.824219 C 797.726562 752.539062 808.488281 773.492188 817.171875 797.035156 C 842.449219 749.175781 880.675781 715.945312 930.09375 688.46875 Z M 814.167969 368.753906 C 793.542969 396.644531 801.675781 445.894531 825.71875 463.878906 C 832.136719 468.675781 838.097656 474.097656 844.589844 478.789062 C 871.898438 498.539062 911.386719 505.601562 936.527344 474.261719 C 853.957031 444.570312 843.753906 422.527344 814.167969 368.742188 Z M 565.027344 711.039062 C 584.75 697.871094 601.34375 687.285156 617.277344 675.792969 C 621.035156 673.082031 622.851562 667.445312 625.113281 662.929688 C 637.273438 638.628906 628.34375 617.289062 615.550781 596.535156 C 603.140625 576.414062 586.363281 564.484375 558.070312 567.847656 C 591.546875 612.988281 573.199219 660.351562 565.027344 711.039062 Z M 554.328125 541.414062 C 602.152344 562.539062 655.003906 529.628906 658.007812 478.945312 C 658.640625 468.292969 661.707031 457.800781 662.859375 447.148438 C 663.085938 445.03125 663 442.929688 662.601562 440.835938 C 662.199219 438.746094 661.503906 436.761719 660.507812 434.878906 C 655.089844 425.519531 648.734375 416.707031 642.949219 407.988281 C 633.28125 433.886719 625.792969 459.867188 614.058594 483.769531 C 601.601562 509.117188 578.8125 526.117188 554.328125 541.414062 Z M 881.800781 509.867188 C 860.546875 499.84375 841.757812 494.089844 826.875 483.070312 C 812.332031 472.304688 801.777344 456.15625 788.480469 441.261719 C 785.152344 451.230469 782.582031 459.601562 779.570312 467.816406 C 770.644531 492.15625 788.371094 530.167969 812.929688 537.828125 C 818.199219 539.46875 825.3125 540.289062 829.914062 538.0625 C 846.773438 529.890625 862.941406 520.277344 881.792969 509.867188 Z M 786.683594 366.425781 C 745.179688 391.882812 703.902344 407.222656 656.324219 386.371094 C 674.667969 432.738281 679.265625 435.808594 723.484375 430.125 C 732.84375 428.917969 742.875 427.136719 750.914062 422.640625 C 771.019531 411.359375 789.582031 397.957031 786.675781 366.429688 Z M 656.871094 680.960938 C 656.871094 682.523438 656.871094 684.082031 656.871094 685.640625 C 695.9375 694.429688 736.753906 697.523438 772.929688 723.070312 C 773.472656 703.160156 771.042969 687.144531 761.46875 674.011719 C 746.691406 653.742188 717.523438 647.109375 694.265625 658.300781 C 681.195312 664.589844 669.300781 673.328125 656.871094 680.960938 Z M 888.96875 530.652344 L 883.632812 526.363281 C 871.464844 534.027344 859.351562 541.773438 847.121094 549.332031 C 831.777344 558.816406 825.753906 574.277344 822.246094 590.492188 C 821.960938 591.664062 821.773438 592.847656 821.683594 594.050781 C 821.597656 595.25 821.609375 596.449219 821.722656 597.648438 C 821.832031 598.847656 822.046875 600.027344 822.355469 601.191406 C 822.667969 602.355469 823.070312 603.484375 823.570312 604.578125 C 824.070312 605.675781 824.660156 606.722656 825.335938 607.71875 C 826.007812 608.714844 826.761719 609.648438 827.59375 610.519531 C 828.425781 611.390625 829.324219 612.1875 830.289062 612.90625 C 831.253906 613.625 832.273438 614.261719 833.34375 614.8125 C 846.695312 621.859375 860.679688 627.714844 879.238281 636.328125 C 868.613281 597.042969 873.457031 563.269531 888.96875 530.652344 Z M 795.746094 720.585938 C 803.105469 712.574219 807.375 709.363281 809.746094 705.09375 C 819.003906 688.449219 831.515625 676.226562 849.972656 669.808594 C 855.878906 667.753906 860.4375 661.828125 868.394531 655.441406 C 851.964844 648.097656 839.792969 640.976562 826.660156 637.144531 C 801.542969 629.8125 780.164062 648.710938 784.207031 674.304688 C 786.464844 688.539062 791.113281 702.382812 795.746094 720.585938 Z M 624.351562 582.375 C 636.589844 607.085938 646.335938 630.453125 641.894531 660.925781 C 654.960938 653.847656 665.058594 648.671875 674.863281 642.996094 C 693.367188 632.289062 694.738281 615.871094 679.53125 600.300781 C 665.15625 585.582031 647.835938 580.6875 624.351562 582.375 Z M 693.574219 450.09375 C 698.800781 460.167969 702.78125 469.394531 708.097656 477.769531 C 719.566406 495.828125 747.800781 496.230469 757.054688 477.300781 C 763.820312 463.457031 765.933594 447.339844 770.234375 431.84375 Z M 622.886719 551.769531 L 624.589844 557.859375 C 635.046875 558.390625 647.871094 562.972656 655.433594 558.550781 C 668.191406 551.089844 681.152344 539.722656 687.707031 526.796875 C 701.925781 498.753906 694.878906 476.445312 672.363281 465.734375 C 671.355469 503.019531 656.410156 532.582031 622.886719 551.769531 Z M 707.625 512.992188 L 678.964844 565.179688 L 739.355469 575.410156 C 734.191406 548.582031 717.03125 532.664062 707.628906 512.992188 Z M 802.765625 553.917969 C 790.746094 538.132812 780.464844 524.625 769.125 509.734375 C 762.824219 529.636719 757.210938 548.007812 761.761719 570.167969 Z M 742.347656 595.042969 L 691.707031 588.9375 L 704.417969 623.667969 C 719.566406 619.023438 731.109375 610.4375 742.351562 595.035156 Z M 726.9375 634.199219 C 727.304688 635.894531 727.675781 637.589844 728.042969 639.289062 L 758.15625 644.449219 L 746.265625 619.320312 Z M 811.359375 576.109375 L 807.09375 572.480469 L 783.429688 588.921875 L 803.894531 599.289062 Z M 752.566406 502.53125 L 725.402344 507.621094 L 741.3125 531.132812 C 745.3125 520.964844 747.847656 514.527344 752.566406 502.53125 Z M 770.769531 611.128906 C 773.167969 623.367188 774.449219 629.898438 776.3125 639.386719 L 797.328125 622.226562 Z M 770.769531 611.128906 " fill-opacity="1" fill-rule="nonzero"/></g></svg>