<svg xmlns="http://www.w3.org/2000/svg" xmlns:xlink="http://www.w3.org/1999/xlink" width="2048" zoomAndPan="magnify" viewBox="0 0 1536 1097.999945" height="1464" preserveAspectRatio="xMidYMid meet" version="1.0"><defs><clipPath id="8f86181868"><path d="M 277.988281 543.433594 L 1257.992188 543.433594 L 1257.992188 554.367188 L 277.988281 554.367188 Z M 277.988281 543.433594 " clip-rule="nonzero"/></clipPath><clipPath id="b05dbee6ff"><path d="M 617.335938 81.945312 L 918.65625 81.945312 L 918.65625 1015.695312 L 617.335938 1015.695312 Z M 617.335938 81.945312 " clip-rule="nonzero"/></clipPath></defs><path fill="#ffffff" d="M 518.890625 728.207031 C 531.03125 728.226562 566.503906 731.390625 610.15625 763.488281 C 651.589844 793.941406 666.554688 828.070312 670.753906 839.976562 C 679.511719 829.6875 709.027344 801.113281 766.570312 801.113281 C 767.054688 801.113281 767.527344 801.113281 768.011719 801.117188 C 820.414062 801.550781 850.253906 828.585938 860.4375 839.863281 C 861.828125 825.070312 870.253906 787.015625 918.476562 752.425781 C 951.492188 728.742188 977.273438 724.324219 993.109375 724.789062 C 1003.148438 725.085938 1010.539062 727.285156 1015.078125 729.148438 C 1011.164062 715.851562 1003.679688 679.667969 1019.375 632.359375 C 1037.695312 577.097656 1062.28125 557.589844 1073.304688 551.328125 C 1060.289062 546.328125 1029.300781 528.890625 1011.234375 472.726562 C 992.726562 415.15625 1010.660156 379.457031 1017.28125 369.011719 C 1006.898438 367 976.003906 358.683594 931.902344 326.238281 C 885.84375 292.335938 869.914062 266.21875 865.429688 257.238281 C 858.054688 264.308594 833.519531 282.765625 776.328125 285.632812 C 771.296875 285.886719 766.492188 286.003906 761.921875 286.003906 C 706.253906 286.003906 683.609375 268.40625 675.414062 258.851562 C 673.488281 271.976562 663.507812 301.617188 615.332031 336.171875 C 567.980469 370.136719 535.144531 369.890625 522.199219 367.855469 C 529.992188 380.570312 546.652344 416.394531 528.972656 469.6875 C 511.007812 523.863281 476.875 542.066406 462.90625 547.414062 C 476.171875 553.871094 508.21875 574.109375 524.363281 624.316406 C 541.871094 678.753906 525.339844 716.492188 518.890625 728.207031 Z M 862.523438 848.375 C 861.777344 848.375 861.050781 848.011719 860.609375 847.371094 C 860.328125 846.964844 831.375 806.296875 767.972656 805.777344 C 767.519531 805.769531 767.0625 805.769531 766.617188 805.769531 C 700.449219 805.769531 672.066406 845.792969 671.785156 846.199219 C 671.269531 846.949219 670.359375 847.328125 669.464844 847.171875 C 668.566406 847.011719 667.84375 846.347656 667.613281 845.464844 C 667.5 845.042969 656.082031 803.023438 607.398438 767.238281 C 555.800781 729.304688 515.332031 732.96875 514.925781 733.011719 C 514.019531 733.101562 513.148438 732.660156 512.6875 731.886719 C 512.222656 731.101562 512.253906 730.125 512.765625 729.375 C 513.125 728.851562 540.015625 688.199219 519.929688 625.742188 C 500.40625 565.035156 455.96875 549.460938 455.523438 549.3125 C 454.53125 548.980469 453.886719 548.027344 453.9375 546.984375 C 453.992188 545.941406 454.730469 545.0625 455.75 544.832031 C 456.21875 544.726562 502.96875 533.308594 524.554688 468.222656 C 545.621094 404.695312 515.40625 366.078125 515.097656 365.699219 C 514.441406 364.882812 514.410156 363.726562 515.019531 362.878906 C 515.628906 362.03125 516.734375 361.6875 517.710938 362.046875 C 518.066406 362.175781 554.019531 374.421875 612.613281 332.390625 C 673.957031 288.386719 671.175781 252.535156 671.140625 252.175781 C 671.03125 251.042969 671.753906 249.992188 672.855469 249.695312 C 673.957031 249.398438 675.109375 249.9375 675.582031 250.976562 C 675.734375 251.308594 692.488281 285.164062 776.09375 280.984375 C 843.15625 277.621094 864.078125 251.929688 864.28125 251.671875 C 864.804688 251.007812 865.640625 250.675781 866.480469 250.808594 C 867.3125 250.9375 868.011719 251.511719 868.304688 252.304688 C 868.414062 252.597656 879.839844 282.140625 934.667969 322.484375 C 987.128906 361.09375 1021.191406 364.941406 1021.523438 364.972656 C 1022.378906 365.058594 1023.109375 365.601562 1023.4375 366.386719 C 1023.769531 367.171875 1023.652344 368.074219 1023.121094 368.738281 C 1022.835938 369.097656 994.660156 405.960938 1015.667969 471.300781 C 1037.570312 539.382812 1079.746094 548.511719 1080.171875 548.597656 C 1081.214844 548.804688 1081.984375 549.695312 1082.039062 550.757812 C 1082.097656 551.820312 1081.429688 552.789062 1080.410156 553.105469 C 1080.082031 553.210938 1046.753906 564.578125 1023.796875 633.824219 C 1004.835938 690.976562 1021.070312 732.464844 1021.230469 732.878906 C 1021.617188 733.824219 1021.335938 734.917969 1020.539062 735.558594 C 1019.738281 736.203125 1018.617188 736.253906 1017.769531 735.679688 C 1017.691406 735.625 1008.808594 729.828125 992.605469 729.433594 C 977.546875 729.070312 952.96875 733.421875 921.195312 756.210938 C 863.089844 797.890625 864.828125 845.453125 864.851562 845.929688 C 864.90625 846.96875 864.257812 847.914062 863.273438 848.25 C 863.027344 848.339844 862.777344 848.375 862.523438 848.375 " fill-opacity="1" fill-rule="nonzero"/><path fill="#ffffff" d="M 757.496094 901.515625 C 759.691406 901.515625 761.90625 901.542969 764.164062 901.601562 C 812.074219 902.851562 845.628906 915.375 865.34375 925.65625 C 880.371094 933.492188 889.773438 941.144531 894.214844 945.191406 C 898.300781 929.976562 916.683594 875.285156 977.925781 831.355469 C 1018.082031 802.550781 1051.050781 794.453125 1071.628906 792.730469 C 1087.054688 791.441406 1097.9375 793.378906 1103.449219 794.792969 C 1099.953125 779.433594 1089.699219 722.652344 1110.980469 658.46875 C 1134.234375 588.347656 1171.164062 559.730469 1183.414062 551.851562 C 1178.277344 549.289062 1169.058594 543.773438 1158.164062 533.125 C 1143.171875 518.457031 1122.011719 490.75 1106.355469 442.058594 C 1079.410156 358.273438 1097.667969 318.003906 1105.183594 306.148438 C 1091.328125 305.40625 1047.613281 299.203125 985.453125 253.460938 C 920.878906 205.941406 903.226562 165.914062 899.15625 153.957031 C 889.625 161.449219 855.207031 183.292969 776.21875 185.054688 C 688.253906 187.023438 652.257812 162.273438 641.964844 153.070312 C 640.65625 159.035156 637.429688 170.484375 629.84375 185.109375 C 619.675781 204.699219 599.382812 233.914062 560.441406 261.851562 C 517.5625 292.609375 484.125 301.90625 463.621094 304.292969 C 449.898438 305.890625 440.011719 304.734375 434.265625 303.542969 C 437.234375 309.113281 441.675781 319.203125 444.621094 333.882812 C 448.898438 355.164062 450.660156 390.585938 434.773438 438.488281 C 419.730469 483.84375 397.117188 511.324219 380.796875 526.394531 C 369.039062 537.25 358.894531 543.363281 353.199219 546.328125 C 358.554688 548.921875 367.71875 554.300781 378.441406 564.488281 C 393.753906 579.035156 415.316406 606.671875 431.089844 655.714844 C 447.1875 705.785156 445.605469 741.003906 441.441406 761.726562 C 438.363281 777.054688 433.527344 786.90625 430.601562 791.824219 C 445.71875 792.347656 497.667969 797.109375 553.949219 836.117188 C 613.496094 877.390625 632.359375 928.5625 636.769531 943.429688 C 641.046875 939.089844 650.046875 931.042969 664.5625 923.097656 C 682.816406 913.101562 713.480469 901.515625 757.496094 901.515625 Z M 895.507812 952.035156 C 894.871094 952.035156 894.238281 951.769531 893.789062 951.277344 C 893.394531 950.855469 853.734375 908.601562 764.046875 906.261719 C 675.242188 903.9375 637.804688 949.136719 637.4375 949.59375 C 636.871094 950.296875 635.957031 950.605469 635.078125 950.398438 C 634.203125 950.1875 633.527344 949.496094 633.34375 948.613281 C 633.214844 948.007812 619.796875 887.421875 551.292969 839.945312 C 486.042969 794.714844 426.96875 796.410156 426.382812 796.429688 C 425.46875 796.464844 424.621094 795.964844 424.210938 795.148438 C 423.804688 794.339844 423.90625 793.359375 424.472656 792.652344 C 424.554688 792.546875 432.652344 782.175781 436.953125 760.425781 C 440.933594 740.296875 442.375 706.03125 426.652344 657.140625 C 397.128906 565.320312 347.285156 548.824219 346.789062 548.671875 C 345.84375 548.375 345.1875 547.515625 345.152344 546.523438 C 345.121094 545.535156 345.714844 544.632812 346.640625 544.273438 C 347.191406 544.0625 402.261719 521.722656 430.351562 437.023438 C 460.070312 347.40625 427.734375 301.589844 427.40625 301.136719 C 426.792969 300.292969 426.8125 299.152344 427.449219 298.332031 C 428.089844 297.511719 429.191406 297.214844 430.160156 297.605469 C 430.269531 297.644531 442.03125 302.1875 463.5 299.617188 C 483.382812 297.230469 515.871094 288.089844 557.726562 258.066406 C 630.566406 205.816406 638.089844 148.582031 638.15625 148.007812 C 638.265625 147.078125 638.921875 146.304688 639.816406 146.042969 C 640.714844 145.785156 641.679688 146.082031 642.273438 146.804688 C 642.566406 147.160156 673.148438 182.699219 776.117188 180.402344 C 867.394531 178.363281 898.410156 148.507812 898.707031 148.210938 C 899.3125 147.609375 900.191406 147.382812 901 147.617188 C 901.816406 147.851562 902.433594 148.507812 902.625 149.332031 C 902.730469 149.777344 914.039062 195.125 988.214844 249.710938 C 1061.253906 303.453125 1109.09375 301.589844 1109.5625 301.558594 C 1110.527344 301.511719 1111.378906 302.03125 1111.789062 302.875 C 1112.195312 303.722656 1112.050781 304.734375 1111.421875 305.433594 C 1111.351562 305.519531 1103.335938 314.828125 1099.257812 335.992188 C 1095.476562 355.613281 1094.410156 389.699219 1110.789062 440.636719 C 1140.035156 531.585938 1188.761719 549.171875 1189.25 549.335938 C 1190.132812 549.636719 1190.75 550.441406 1190.816406 551.375 C 1190.890625 552.308594 1190.390625 553.191406 1189.558594 553.613281 C 1189.089844 553.855469 1142.347656 578.667969 1115.40625 659.929688 C 1091.027344 733.425781 1108.75 796.945312 1108.929688 797.578125 C 1109.175781 798.433594 1108.914062 799.355469 1108.253906 799.949219 C 1107.597656 800.550781 1106.65625 800.722656 1105.832031 800.386719 C 1105.707031 800.339844 1093.21875 795.535156 1071.675781 797.402344 C 1051.742188 799.128906 1019.761719 807.074219 980.636719 835.144531 C 910.722656 885.296875 897.917969 949.5 897.800781 950.140625 C 897.636719 951.011719 896.996094 951.710938 896.148438 951.949219 C 895.9375 952.007812 895.71875 952.035156 895.507812 952.035156 " fill-opacity="1" fill-rule="nonzero"/><path fill="#ffffff" d="M 692.117188 606.570312 C 699.003906 606.570312 708.628906 608.363281 718.796875 615.847656 C 729.929688 624.035156 734.335938 634.40625 736.085938 641.300781 C 740.433594 634.417969 749.34375 624.839844 765.21875 625.566406 C 779.894531 626.238281 790.238281 634.320312 796.121094 640.59375 C 795.652344 631.742188 797.625 618.417969 811.066406 609 C 824.613281 599.503906 838.09375 602.097656 846.253906 605.347656 C 843.082031 598.625 840.214844 587.777344 844.648438 574.414062 C 849.675781 559.253906 857.875 552.570312 864.191406 549.625 C 856.34375 546.570312 845.304688 539.671875 840.375 524.359375 C 835.59375 509.480469 843.066406 496.6875 848.023438 490.3125 C 841.578125 490.132812 830.554688 488.335938 818.921875 479.777344 C 807.316406 471.238281 802.316406 461.273438 800.21875 455.171875 C 795.898438 461.351562 786.769531 471.058594 772.0625 471.066406 C 771.660156 471.066406 771.253906 471.054688 770.832031 471.042969 C 754.78125 470.457031 744.925781 463.328125 739.496094 457.488281 C 739.535156 465.921875 737.003906 478.410156 724.035156 487.710938 C 710.839844 497.171875 698.289062 495.5625 690.378906 492.769531 C 693.933594 499.53125 697.160156 510.378906 692.644531 524.007812 C 687.730469 538.824219 677.664062 545.507812 670.660156 548.453125 C 678.285156 551.574219 689.667969 558.253906 693.832031 571.210938 C 698.5 585.71875 692.085938 599.667969 687.75 606.816406 C 689.035156 606.671875 690.5 606.570312 692.117188 606.570312 Z M 799.871094 651.5 C 799.074219 651.5 798.300781 651.089844 797.871094 650.363281 C 797.757812 650.171875 786.179688 631.191406 765.011719 630.222656 C 744.195312 629.265625 737.386719 648.691406 737.109375 649.515625 C 736.75 650.589844 735.667969 651.25 734.542969 651.074219 C 733.417969 650.898438 732.585938 649.945312 732.570312 648.8125 C 732.566406 648.640625 732.066406 631.390625 716.039062 619.597656 C 699.015625 607.070312 683.992188 612.238281 683.359375 612.460938 C 682.378906 612.808594 681.273438 612.46875 680.671875 611.617188 C 680.066406 610.761719 680.101562 609.617188 680.757812 608.804688 C 680.976562 608.53125 695.167969 590.578125 689.398438 572.636719 C 683.859375 555.410156 662.589844 550.679688 662.378906 550.632812 C 661.269531 550.394531 660.492188 549.398438 660.539062 548.265625 C 660.582031 547.132812 661.433594 546.195312 662.558594 546.046875 C 663.316406 545.941406 681.363281 543.226562 688.222656 522.539062 C 695.019531 502.050781 681.800781 488.464844 681.664062 488.328125 C 680.804688 487.460938 680.757812 486.078125 681.558594 485.15625 C 682.359375 484.234375 683.738281 484.085938 684.710938 484.820312 C 685.417969 485.34375 702.308594 497.558594 721.316406 483.925781 C 739.953125 470.5625 734.136719 450.34375 733.882812 449.488281 C 733.53125 448.320312 734.140625 447.078125 735.277344 446.640625 C 736.421875 446.203125 737.695312 446.71875 738.214844 447.816406 C 738.5625 448.53125 746.980469 465.507812 771.003906 466.382812 C 771.347656 466.398438 771.683594 466.402344 772.019531 466.402344 C 790.238281 466.402344 798.890625 448.40625 798.972656 448.21875 C 799.417969 447.277344 800.429688 446.746094 801.449219 446.90625 C 802.472656 447.066406 803.265625 447.890625 803.394531 448.917969 C 803.414062 449.066406 805.546875 464.148438 821.683594 476.027344 C 837.820312 487.898438 852.855469 485.445312 853.007812 485.425781 C 854.027344 485.242188 855.03125 485.75 855.496094 486.671875 C 855.953125 487.589844 855.765625 488.703125 855.011719 489.40625 C 854.859375 489.558594 839.011719 504.890625 844.808594 522.933594 C 851.761719 544.546875 872.503906 547.214844 873.382812 547.316406 C 874.609375 547.460938 875.511719 548.535156 875.441406 549.765625 C 875.371094 550.996094 874.351562 551.957031 873.121094 551.957031 C 872.472656 551.964844 856.847656 552.429688 849.066406 575.882812 C 842.488281 595.722656 853.929688 609.203125 854.425781 609.769531 C 855.199219 610.664062 855.179688 612.003906 854.375 612.878906 C 853.574219 613.746094 852.242188 613.878906 851.289062 613.175781 C 850.527344 612.621094 832.433594 599.710938 813.742188 612.808594 C 794.898438 626.019531 801.777344 647.527344 802.082031 648.433594 C 802.453125 649.5625 801.921875 650.796875 800.839844 651.289062 C 800.527344 651.433594 800.195312 651.5 799.871094 651.5 " fill-opacity="1" fill-rule="nonzero"/><path fill="#ffffff" d="M 616.726562 663.210938 C 628.625 663.210938 646.753906 666.957031 669.09375 683.394531 C 697.621094 704.386719 704.195312 726.59375 705.671875 736.929688 C 713.441406 728.75 732.976562 712.074219 763.527344 711.453125 C 800.253906 710.707031 819.53125 726.960938 827.457031 736.207031 C 828.289062 724.582031 833.914062 701.660156 862.695312 681.011719 C 893.203125 659.128906 917.121094 662.339844 927.667969 665.585938 C 923.46875 655.5 916.925781 632.472656 927.113281 601.761719 C 937.125 571.570312 956.433594 556.675781 965.820312 550.960938 C 955.492188 547.304688 934.347656 535.585938 922.664062 499.253906 C 911.214844 463.65625 922.621094 441.28125 928.804688 432.535156 C 920.355469 432.003906 902.167969 427.816406 872.96875 406.328125 C 845.578125 386.171875 835.441406 369.367188 831.835938 361.140625 C 826.511719 369.46875 811.601562 385.078125 774.089844 386.539062 C 772.320312 386.605469 770.585938 386.636719 768.902344 386.636719 C 732.738281 386.644531 715.378906 371.335938 708.214844 362.152344 C 706.957031 374.050781 700.785156 397.25 673.289062 416.976562 C 645.882812 436.632812 621.632812 434.953125 609.976562 432.375 C 616.632812 442.382812 626.761719 464.742188 616.078125 498.578125 C 605.140625 533.230469 582.742188 544.707031 571.253906 548.398438 C 582.136719 553.871094 603.46875 568.097656 613.320312 598.730469 C 623.941406 631.761719 614.179688 654.125 607.996094 663.9375 C 610.351562 663.527344 613.277344 663.210938 616.726562 663.210938 Z M 829.882812 745.808594 C 829.054688 745.808594 828.265625 745.363281 827.847656 744.605469 C 827.683594 744.3125 810.878906 715.152344 763.625 716.113281 C 726.300781 716.871094 705.820312 743.828125 705.617188 744.105469 C 705.007812 744.921875 703.929688 745.25 702.964844 744.902344 C 702 744.5625 701.371094 743.625 701.421875 742.601562 C 701.433594 742.324219 702.242188 713.574219 666.332031 687.148438 C 628.300781 659.164062 603.359375 669.960938 603.113281 670.078125 C 602.101562 670.535156 600.90625 670.214844 600.257812 669.316406 C 599.609375 668.414062 599.6875 667.175781 600.449219 666.363281 C 600.820312 665.957031 622.308594 641.886719 608.886719 600.15625 C 596.394531 561.304688 563.503906 550.078125 563.171875 549.96875 C 562.132812 549.628906 561.472656 548.605469 561.585938 547.519531 C 561.695312 546.429688 562.550781 545.566406 563.636719 545.441406 C 565.023438 545.277344 597.820312 540.949219 611.636719 497.179688 C 625.425781 453.5 602.203125 429.921875 601.96875 429.6875 C 601.167969 428.898438 601.046875 427.65625 601.675781 426.726562 C 602.296875 425.796875 603.5 425.449219 604.53125 425.890625 C 604.828125 426.019531 635.195312 438.566406 670.574219 413.1875 C 706.351562 387.527344 703.808594 355.046875 703.78125 354.722656 C 703.675781 353.589844 704.410156 352.542969 705.515625 352.257812 C 706.617188 351.96875 707.769531 352.523438 708.230469 353.5625 C 708.785156 354.792969 722.476562 383.886719 773.910156 381.878906 C 820.765625 380.058594 829.941406 354.78125 830.027344 354.53125 C 830.371094 353.53125 831.324219 352.878906 832.390625 352.953125 C 833.441406 353.023438 834.316406 353.785156 834.519531 354.820312 C 834.5625 355.015625 839.21875 375.710938 875.730469 402.574219 C 914.9375 431.425781 933.121094 427.800781 933.300781 427.765625 C 934.3125 427.535156 935.363281 428.003906 935.863281 428.914062 C 936.363281 429.820312 936.210938 430.949219 935.476562 431.679688 C 934.5625 432.597656 913.234375 454.714844 927.097656 497.828125 C 941.671875 543.136719 972.09375 547.878906 972.402344 547.921875 C 973.433594 548.066406 974.25 548.878906 974.390625 549.917969 C 974.53125 550.949219 973.96875 551.953125 973.007812 552.367188 C 972.726562 552.492188 944.101562 565.335938 931.539062 603.230469 C 918.664062 642.046875 934.214844 668.484375 934.371094 668.75 C 934.917969 669.648438 934.789062 670.808594 934.054688 671.570312 C 933.324219 672.328125 932.179688 672.503906 931.253906 671.996094 C 930.144531 671.386719 903.535156 657.449219 865.410156 684.796875 C 828.066406 711.585938 832.144531 742.828125 832.1875 743.136719 C 832.351562 744.253906 831.691406 745.324219 830.628906 745.683594 C 830.382812 745.765625 830.128906 745.808594 829.882812 745.808594 " fill-opacity="1" fill-rule="nonzero"/><path fill="#ffffff" d="M 1160.785156 840.359375 C 1160.308594 840.359375 1159.824219 840.210938 1159.414062 839.90625 L 373.8125 261.828125 C 372.777344 261.066406 372.554688 259.613281 373.316406 258.574219 C 374.082031 257.535156 375.539062 257.3125 376.574219 258.082031 L 1162.171875 836.15625 C 1163.210938 836.917969 1163.425781 838.375 1162.667969 839.410156 C 1162.210938 840.03125 1161.503906 840.359375 1160.785156 840.359375 " fill-opacity="1" fill-rule="nonzero"/><g clip-path="url(#8f86181868)"><path fill="#ffffff" d="M 1255.664062 554.277344 C 1255.65625 554.277344 1255.65625 554.277344 1255.648438 554.277344 L 280.304688 548.367188 C 279.019531 548.359375 277.980469 547.308594 277.988281 546.023438 C 277.996094 544.742188 279.039062 543.707031 280.316406 543.707031 C 280.324219 543.707031 280.328125 543.707031 280.332031 543.707031 L 1255.675781 549.621094 C 1256.96875 549.628906 1258.003906 550.675781 1257.988281 551.960938 C 1257.984375 553.242188 1256.945312 554.277344 1255.664062 554.277344 " fill-opacity="1" fill-rule="nonzero"/></g><g clip-path="url(#b05dbee6ff)"><path fill="#ffffff" d="M 915.886719 1016.042969 C 914.894531 1016.042969 913.976562 1015.410156 913.660156 1014.417969 L 617.882812 84.980469 C 617.496094 83.753906 618.171875 82.441406 619.398438 82.054688 C 620.617188 81.664062 621.929688 82.339844 622.324219 83.566406 L 918.101562 1013.003906 C 918.492188 1014.230469 917.8125 1015.539062 916.582031 1015.925781 C 916.355469 1016.003906 916.113281 1016.042969 915.886719 1016.042969 " fill-opacity="1" fill-rule="nonzero"/></g><path fill="#ffffff" d="M 371.71875 835.574219 C 370.996094 835.574219 370.28125 835.238281 369.828125 834.605469 C 369.078125 833.5625 369.316406 832.105469 370.359375 831.355469 L 1162.902344 262.847656 C 1163.949219 262.09375 1165.40625 262.332031 1166.152344 263.382812 C 1166.90625 264.421875 1166.667969 265.878906 1165.625 266.632812 L 373.074219 835.144531 C 372.664062 835.4375 372.191406 835.574219 371.71875 835.574219 " fill-opacity="1" fill-rule="nonzero"/><path fill="#ffffff" d="M 614.480469 1014.210938 C 614.238281 1014.210938 613.992188 1014.175781 613.746094 1014.09375 C 612.527344 1013.691406 611.863281 1012.375 612.269531 1011.152344 L 919.289062 85.371094 C 919.691406 84.152344 921 83.488281 922.234375 83.894531 C 923.449219 84.300781 924.117188 85.617188 923.714844 86.832031 L 616.691406 1012.617188 C 616.367188 1013.59375 615.457031 1014.210938 614.480469 1014.210938 " fill-opacity="1" fill-rule="nonzero"/><path fill="#ffffff" d="M 484.957031 764.707031 C 487.046875 764.707031 489.246094 764.773438 491.546875 764.910156 C 511.386719 766.101562 543.15625 773.5 581.839844 801.972656 C 618.503906 828.945312 635.125 857.140625 642.609375 876.042969 C 647.648438 888.765625 649.363281 899.007812 649.925781 905.128906 C 654.460938 900.039062 662.871094 891.527344 675.101562 882.871094 C 692.574219 870.507812 721.429688 855.613281 759.6875 854.839844 C 808.007812 853.851562 839.644531 869.253906 857.695312 882.34375 C 869.15625 890.648438 876.679688 898.996094 881.03125 904.640625 C 881.132812 897.902344 882.117188 887.539062 886.050781 875.019531 C 892.398438 854.820312 907.992188 824.984375 946.269531 797.527344 C 985.359375 769.484375 1018.582031 764.304688 1039.578125 764.898438 C 1053.6875 765.296875 1064.214844 768.222656 1070.359375 770.484375 C 1067.640625 764.621094 1063.683594 754.570312 1060.875 740.941406 C 1056.652344 720.503906 1054.375 687.847656 1067.480469 648.316406 C 1087.328125 588.472656 1127.964844 560.683594 1142.988281 552.15625 C 1136.835938 550.359375 1126.804688 546.480469 1115.375 538.367188 C 1098.4375 526.332031 1075.113281 502.242188 1060.179688 455.816406 C 1045.964844 411.617188 1051.085938 378.453125 1057.875 358.421875 C 1062.539062 344.675781 1068.507812 335.144531 1072.410156 329.847656 C 1057.871094 331.230469 1019.027344 329.222656 958.503906 284.6875 C 904.03125 244.601562 890.371094 209.460938 886.945312 194.449219 C 883.949219 199.539062 878.625 206.808594 869.726562 214.222656 C 855.117188 226.390625 827.570312 241.289062 779.316406 243.164062 C 776.125 243.289062 773.007812 243.347656 769.972656 243.347656 C 722.785156 243.351562 693.304688 228.933594 676.597656 216.394531 C 665.539062 208.097656 658.578125 199.679688 654.585938 193.851562 C 654.207031 200.753906 652.863281 211.273438 648.742188 223.84375 C 642.039062 244.292969 626.351562 274.179688 589.714844 300.460938 C 553.929688 326.132812 520.945312 331.613281 499.320312 331.613281 C 499.050781 331.613281 498.785156 331.613281 498.515625 331.605469 C 484.949219 331.519531 474.304688 329.398438 467.605469 327.5625 C 471.789062 333.1875 477.65625 342.464844 482.425781 355.347656 C 489.996094 375.773438 496.054688 409.484375 481.972656 454.105469 C 467.769531 499.089844 442.675781 522.480469 424.125 534.179688 C 412.023438 541.8125 401.195312 545.589844 394.308594 547.410156 C 400.867188 550.386719 411.222656 555.84375 422.742188 564.742188 C 440.359375 578.347656 464.042969 602.902344 476.816406 642.625 C 490.625 685.566406 485.25 718.671875 478.3125 738.886719 C 473.824219 751.960938 468.203125 761.394531 464.292969 766.996094 C 469.050781 765.84375 476.019531 764.707031 484.957031 764.707031 Z M 883.730469 915.023438 C 882.90625 915.023438 882.113281 914.582031 881.695312 913.824219 C 881.621094 913.683594 873.664062 899.609375 854.75 885.960938 C 837.292969 873.359375 806.660156 858.542969 759.78125 859.492188 C 688.921875 860.9375 650.105469 912.136719 649.71875 912.65625 C 649.109375 913.476562 648.03125 913.808594 647.066406 913.460938 C 646.101562 913.113281 645.472656 912.175781 645.523438 911.152344 C 645.546875 910.613281 647.234375 855.871094 579.082031 805.722656 C 541.476562 778.050781 510.761719 770.792969 491.617188 769.578125 C 470.914062 768.269531 458.933594 773.53125 458.8125 773.582031 C 457.804688 774.039062 456.609375 773.71875 455.960938 772.816406 C 455.320312 771.914062 455.394531 770.683594 456.152344 769.875 C 456.339844 769.671875 466.804688 758.203125 473.988281 737.140625 C 480.636719 717.632812 485.757812 685.652344 472.382812 644.050781 C 448.675781 570.335938 386.226562 549.101562 385.597656 548.894531 C 384.554688 548.554688 383.894531 547.535156 384.003906 546.445312 C 384.117188 545.355469 384.972656 544.488281 386.058594 544.367188 C 386.222656 544.347656 402.53125 542.351562 421.851562 530.105469 C 439.667969 518.8125 463.792969 496.214844 477.527344 452.699219 C 491.175781 409.46875 485.398438 376.910156 478.148438 357.207031 C 470.289062 335.855469 459.046875 324.550781 458.933594 324.441406 C 458.140625 323.652344 458.019531 322.410156 458.644531 321.480469 C 459.269531 320.554688 460.46875 320.199219 461.5 320.644531 C 461.640625 320.710938 476.160156 326.851562 498.785156 326.953125 C 498.964844 326.953125 499.148438 326.953125 499.332031 326.953125 C 520.203125 326.953125 552.179688 321.648438 586.996094 296.679688 C 622.511719 271.199219 637.730469 242.34375 644.238281 222.625 C 651.296875 201.246094 649.945312 185.667969 649.929688 185.511719 C 649.824219 184.375 650.554688 183.328125 651.660156 183.039062 C 652.773438 182.75 653.914062 183.308594 654.378906 184.347656 C 654.4375 184.492188 661.066406 199.003906 679.636719 212.855469 C 696.804688 225.65625 728.015625 240.5 779.136719 238.511719 C 825.859375 236.691406 852.414062 222.480469 866.464844 210.875 C 881.625 198.355469 885.882812 186.105469 885.925781 185.980469 C 886.285156 184.910156 887.351562 184.25 888.484375 184.421875 C 889.597656 184.59375 890.4375 185.542969 890.460938 186.675781 C 890.472656 187.097656 892.355469 230.226562 961.265625 280.933594 C 1035.765625 335.757812 1077.046875 324.414062 1077.460938 324.296875 C 1078.46875 323.992188 1079.566406 324.414062 1080.113281 325.324219 C 1080.664062 326.226562 1080.53125 327.386719 1079.800781 328.148438 C 1079.691406 328.253906 1069.25 339.234375 1062.203125 360.171875 C 1055.691406 379.5 1050.832031 411.539062 1064.617188 454.390625 C 1079.09375 499.429688 1101.539062 522.75 1117.820312 534.386719 C 1135.425781 546.96875 1149.8125 548.980469 1149.957031 548.996094 C 1151 549.132812 1151.8125 549.945312 1151.964844 550.980469 C 1152.109375 552.019531 1151.546875 553.027344 1150.585938 553.445312 C 1150.039062 553.679688 1095.722656 577.972656 1071.90625 649.785156 C 1047.503906 723.359375 1077.097656 773.496094 1077.394531 773.996094 C 1077.941406 774.898438 1077.816406 776.054688 1077.085938 776.816406 C 1076.355469 777.574219 1075.207031 777.753906 1074.285156 777.242188 C 1074.15625 777.171875 1061.035156 770.105469 1039.148438 769.546875 C 1018.941406 769.027344 986.882812 774.125 948.980469 801.308594 C 911.871094 827.929688 896.742188 856.703125 890.574219 876.152344 C 883.90625 897.214844 886.011719 912.203125 886.03125 912.351562 C 886.199219 913.464844 885.546875 914.539062 884.480469 914.898438 C 884.230469 914.984375 883.980469 915.023438 883.730469 915.023438 " fill-opacity="1" fill-rule="nonzero"/><path fill="#ffffff" d="M 574.332031 695.871094 C 589.433594 695.871094 612.5 700.640625 640.980469 721.601562 C 678.664062 749.328125 686.261719 778.644531 687.734375 791.0625 C 696.902344 781.105469 722.097656 758.46875 762.292969 757.648438 C 810.902344 756.664062 835.34375 778.925781 844.683594 790.355469 C 845.324219 776.222656 851.558594 745.851562 889.625 718.550781 C 929.855469 689.691406 961.015625 695.097656 973.589844 699.324219 C 968.308594 687.289062 958.898438 657.300781 972.339844 616.761719 C 985.546875 576.9375 1011.421875 558.027344 1022.8125 551.351562 C 1010.308594 547.285156 982.054688 533.023438 966.644531 485.109375 C 951.621094 438.394531 967.484375 409.632812 975.109375 399.308594 C 965.035156 398.96875 941.589844 394.367188 902.785156 365.808594 C 866.449219 339.066406 853.9375 317.027344 849.835938 307.078125 C 843.746094 317.265625 825.214844 338.421875 775.777344 340.339844 C 773.585938 340.425781 771.4375 340.46875 769.351562 340.46875 C 736.839844 340.46875 716.511719 330.519531 704.976562 321.867188 C 698.363281 316.90625 693.863281 311.867188 690.972656 307.976562 C 689.800781 322.449219 682.777344 353.3125 646.363281 379.433594 C 610.128906 405.425781 578.273438 402.128906 564.203125 398.667969 C 572.578125 410.613281 586.988281 439.527344 572.871094 484.25 C 563.082031 515.257812 545.761719 531.398438 532.957031 539.472656 C 525.609375 544.105469 518.925781 546.6875 514.175781 548.097656 C 527.394531 554.5625 556.464844 572.835938 569.339844 612.875 C 583.347656 656.4375 569.527344 685.375 561.785156 697.078125 C 564.976562 696.421875 569.191406 695.871094 574.332031 695.871094 Z M 847.234375 800.324219 C 846.40625 800.324219 845.617188 799.882812 845.199219 799.125 C 844.984375 798.746094 823.226562 761.066406 762.386719 762.308594 C 714.257812 763.285156 687.867188 798.058594 687.609375 798.410156 C 686.996094 799.234375 685.917969 799.554688 684.953125 799.214844 C 683.988281 798.867188 683.363281 797.929688 683.410156 796.90625 C 683.425781 796.542969 684.519531 759.417969 638.21875 725.351562 C 589.417969 689.4375 556.941406 703.28125 556.613281 703.425781 C 555.601562 703.878906 554.410156 703.554688 553.765625 702.65625 C 553.121094 701.753906 553.199219 700.523438 553.957031 699.714844 C 554.375 699.257812 582.238281 668.195312 564.90625 614.300781 C 548.800781 564.214844 506.386719 549.761719 505.960938 549.625 C 504.921875 549.28125 504.257812 548.261719 504.371094 547.171875 C 504.480469 546.082031 505.335938 545.21875 506.421875 545.09375 C 506.859375 545.046875 550.597656 539.328125 568.429688 482.847656 C 586.152344 426.703125 556.1875 396.078125 555.882812 395.773438 C 555.089844 394.984375 554.964844 393.742188 555.59375 392.816406 C 556.222656 391.890625 557.421875 391.539062 558.445312 391.980469 C 558.832031 392.144531 598.019531 408.375 643.648438 375.648438 C 689.785156 342.550781 686.46875 300.621094 686.429688 300.207031 C 686.324219 299.070312 687.058594 298.023438 688.164062 297.734375 C 689.265625 297.449219 690.414062 298 690.878906 299.042969 C 691.054688 299.429688 709.273438 338.269531 775.589844 335.6875 C 836.101562 333.335938 847.925781 300.550781 848.035156 300.222656 C 848.378906 299.226562 849.351562 298.574219 850.398438 298.644531 C 851.449219 298.710938 852.324219 299.476562 852.527344 300.511719 C 852.585938 300.773438 858.53125 327.460938 905.542969 362.058594 C 956.105469 399.261719 979.554688 394.464844 979.789062 394.414062 C 980.792969 394.183594 981.851562 394.648438 982.351562 395.558594 C 982.855469 396.464844 982.707031 397.597656 981.96875 398.332031 C 981.679688 398.621094 953.195312 428.070312 971.082031 483.683594 C 989.878906 542.136719 1029.214844 548.214844 1029.609375 548.269531 C 1030.644531 548.410156 1031.464844 549.226562 1031.601562 550.261719 C 1031.746094 551.296875 1031.183594 552.296875 1030.222656 552.714844 C 1029.851562 552.875 992.953125 569.410156 976.765625 618.230469 C 960.171875 668.246094 980.25 702.320312 980.453125 702.65625 C 981 703.558594 980.871094 704.71875 980.136719 705.480469 C 979.40625 706.242188 978.261719 706.417969 977.335938 705.902344 C 976.988281 705.714844 941.523438 687.054688 892.335938 722.339844 C 844.164062 756.894531 849.476562 797.25 849.539062 797.65625 C 849.699219 798.769531 849.042969 799.84375 847.980469 800.203125 C 847.730469 800.285156 847.480469 800.324219 847.234375 800.324219 " fill-opacity="1" fill-rule="nonzero"/><path fill="#ffffff" d="M 719.824219 583.789062 C 723.921875 583.789062 730.046875 585.054688 737.449219 590.503906 C 744.886719 595.972656 747.878906 601.785156 749.078125 605.78125 C 752.464844 602.910156 758.335938 599.292969 766.535156 599.128906 C 776.242188 598.929688 782.347656 602.308594 785.851562 605.3125 C 786.878906 601.039062 789.710938 595.113281 797.214844 589.730469 C 805.289062 583.9375 812.097656 583.394531 816.421875 583.984375 C 815.261719 579.886719 814.46875 573.355469 817.144531 565.292969 C 819.78125 557.332031 824.390625 552.527344 827.796875 549.898438 C 823.972656 547.789062 818.8125 543.257812 815.71875 533.644531 C 812.585938 523.898438 814.589844 517.003906 816.609375 513.136719 C 813.175781 512.382812 807.847656 510.285156 800.46875 504.851562 C 793.472656 499.703125 789.867188 495.191406 788.023438 492.085938 C 785.300781 494.996094 779.976562 498.472656 769.996094 498.859375 C 759.554688 499.269531 753.390625 495.921875 749.945312 492.84375 C 748.828125 497.152344 745.964844 503.09375 738.769531 508.257812 C 731.621094 513.382812 725.042969 514.183594 720.585938 513.867188 C 722.464844 517.988281 723.9375 524.570312 721.144531 533.421875 C 718.265625 542.542969 712.964844 546.9375 708.878906 549.039062 C 712.699219 551.597656 717.675781 556.292969 720.265625 564.34375 C 723.089844 573.121094 721.59375 579.734375 719.789062 583.789062 C 719.800781 583.789062 719.808594 583.789062 719.824219 583.789062 Z M 787.6875 613.230469 C 786.859375 613.230469 786.074219 612.792969 785.65625 612.03125 C 785.46875 611.699219 780.5625 603.5 766.632812 603.78125 C 755.582031 604.007812 749.652344 611.726562 749.40625 612.054688 C 748.792969 612.875 747.714844 613.199219 746.75 612.847656 C 745.789062 612.503906 745.164062 611.570312 745.210938 610.550781 C 745.222656 610.230469 745.34375 602.09375 734.6875 594.253906 C 723.507812 586.023438 716.230469 588.953125 716.160156 588.984375 C 715.148438 589.441406 713.953125 589.121094 713.304688 588.222656 C 712.660156 587.328125 712.734375 586.097656 713.484375 585.285156 C 713.769531 584.96875 719.796875 578.101562 715.828125 565.769531 C 712.085938 554.128906 702.394531 550.84375 702.296875 550.8125 C 701.253906 550.472656 700.59375 549.453125 700.703125 548.363281 C 700.8125 547.273438 701.667969 546.40625 702.757812 546.285156 C 703.144531 546.234375 712.640625 544.886719 716.703125 532.019531 C 720.757812 519.171875 714.289062 512.414062 714.011719 512.128906 C 713.226562 511.335938 713.113281 510.097656 713.746094 509.171875 C 714.375 508.257812 715.5625 507.902344 716.585938 508.347656 C 716.9375 508.492188 725.585938 511.976562 736.054688 504.46875 C 746.632812 496.882812 746 487.671875 745.96875 487.285156 C 745.875 486.148438 746.613281 485.109375 747.714844 484.832031 C 748.816406 484.550781 749.960938 485.097656 750.417969 486.136719 C 750.574219 486.46875 754.671875 494.796875 769.8125 494.207031 C 783.480469 493.675781 786.136719 486.84375 786.246094 486.554688 C 786.609375 485.578125 787.585938 484.933594 788.617188 485.019531 C 789.65625 485.101562 790.527344 485.847656 790.726562 486.867188 C 790.734375 486.898438 792.25 493.023438 803.234375 501.101562 C 814.867188 509.667969 820.25 508.851562 820.308594 508.839844 C 821.320312 508.59375 822.34375 509.058594 822.855469 509.972656 C 823.371094 510.886719 823.171875 512.035156 822.433594 512.769531 C 822.183594 513.027344 816.070312 519.511719 820.15625 532.21875 C 824.449219 545.574219 832.9375 547.027344 833.292969 547.082031 C 834.320312 547.238281 835.128906 548.058594 835.261719 549.089844 C 835.394531 550.117188 834.84375 551.113281 833.886719 551.523438 C 833.550781 551.675781 825.320312 555.433594 821.566406 566.757812 C 817.71875 578.347656 822.128906 585.980469 822.320312 586.300781 C 822.855469 587.203125 822.722656 588.363281 821.992188 589.113281 C 821.261719 589.871094 820.121094 590.046875 819.199219 589.542969 C 818.894531 589.382812 811.160156 585.460938 799.929688 593.515625 C 788.914062 601.417969 789.949219 610.207031 790 610.578125 C 790.148438 611.6875 789.488281 612.757812 788.421875 613.109375 C 788.179688 613.191406 787.933594 613.230469 787.6875 613.230469 " fill-opacity="1" fill-rule="nonzero"/><path fill="#ffffff" d="M 655.445312 633.382812 C 664.414062 633.382812 678.039062 636.199219 694.765625 648.507812 C 715.113281 663.480469 720.578125 679.328125 722.023438 687.550781 C 728.363281 681.164062 742.742188 669.714844 764.660156 669.269531 C 790.945312 668.730469 805.285156 679.78125 811.769531 686.859375 C 812.742188 677.738281 817.59375 661.441406 838.105469 646.730469 C 859.914062 631.085938 877.292969 632.539062 885.789062 634.835938 C 882.644531 626.726562 878.539062 609.992188 885.8125 588.0625 C 892.96875 566.492188 906.476562 555.3125 913.839844 550.589844 C 905.699219 547.386719 890.855469 538.144531 882.5 512.167969 C 874.257812 486.53125 881.816406 469.980469 886.578125 462.847656 C 879.78125 462.164062 866.40625 458.539062 845.742188 443.328125 C 826.320312 429.039062 818.46875 416.941406 815.394531 410.433594 C 810.882812 416.914062 799.402344 427.679688 772.546875 428.722656 C 744.238281 429.828125 730.125 418.769531 723.9375 411.4375 C 722.65625 420.738281 717.484375 437.195312 697.882812 451.257812 C 678.347656 465.269531 660.917969 464.835938 651.6875 463.089844 C 656.660156 471.144531 663.152344 487.539062 655.539062 511.664062 C 647.726562 536.410156 632.097656 545.4375 623.125 548.664062 C 631.605469 553.203125 646.453125 563.941406 653.484375 585.816406 C 661.082031 609.441406 654.769531 625.835938 650.125 633.730469 C 651.652344 633.523438 653.429688 633.382812 655.445312 633.382812 Z M 814.035156 696.015625 C 813.207031 696.015625 812.417969 695.574219 812 694.820312 C 811.507812 693.941406 799.46875 673.222656 764.753906 673.925781 C 737.207031 674.488281 722.214844 694.308594 722.066406 694.503906 C 721.457031 695.332031 720.375 695.65625 719.410156 695.3125 C 718.445312 694.972656 717.820312 694.03125 717.867188 693.007812 C 717.878906 692.804688 718.429688 671.703125 692.003906 652.257812 C 664.179688 631.785156 645.742188 639.542969 645.558594 639.625 C 644.542969 640.070312 643.355469 639.75 642.714844 638.847656 C 642.074219 637.949219 642.148438 636.726562 642.898438 635.914062 C 643.558594 635.199219 658.953125 618.039062 649.050781 587.242188 C 639.855469 558.648438 615.664062 550.367188 615.421875 550.285156 C 614.382812 549.941406 613.71875 548.921875 613.832031 547.832031 C 613.945312 546.746094 614.796875 545.878906 615.886719 545.757812 C 616.898438 545.640625 640.941406 542.425781 651.09375 510.261719 C 661.199219 478.257812 644.75 461.351562 644.046875 460.648438 C 643.253906 459.859375 643.136719 458.613281 643.765625 457.691406 C 644.394531 456.765625 645.585938 456.414062 646.613281 456.859375 C 647.515625 457.242188 669.140625 466.136719 695.167969 447.46875 C 721.480469 428.597656 719.714844 405.488281 719.625 404.511719 C 719.523438 403.375 720.257812 402.332031 721.359375 402.046875 C 722.460938 401.757812 723.613281 402.308594 724.074219 403.355469 C 724.480469 404.25 734.589844 425.539062 772.367188 424.066406 C 807.015625 422.722656 813.519531 404.316406 813.578125 404.132812 C 813.910156 403.125 814.890625 402.472656 815.9375 402.542969 C 816.992188 402.609375 817.871094 403.375 818.074219 404.414062 C 818.105469 404.550781 821.582031 419.769531 848.503906 439.578125 C 877.351562 460.808594 890.714844 458.242188 890.855469 458.214844 C 891.867188 457.996094 892.910156 458.472656 893.40625 459.375 C 893.902344 460.285156 893.753906 461.402344 893.019531 462.136719 C 892.355469 462.804688 876.742188 479.050781 886.933594 510.742188 C 897.644531 544.050781 919.238281 547.476562 920.152344 547.605469 C 921.1875 547.75 922 548.570312 922.140625 549.601562 C 922.28125 550.636719 921.71875 551.636719 920.757812 552.050781 C 920.554688 552.140625 899.492188 561.621094 890.234375 589.53125 C 880.75 618.125 892.171875 637.585938 892.289062 637.78125 C 892.832031 638.683594 892.703125 639.84375 891.972656 640.601562 C 891.238281 641.359375 890.089844 641.535156 889.171875 641.027344 C 888.359375 640.589844 868.84375 630.410156 840.816406 650.515625 C 813.359375 670.207031 816.207031 692.414062 816.347656 693.351562 C 816.5 694.460938 815.847656 695.539062 814.78125 695.894531 C 814.535156 695.972656 814.28125 696.015625 814.035156 696.015625 " fill-opacity="1" fill-rule="nonzero"/></svg>