<svg xmlns="http://www.w3.org/2000/svg" xmlns:xlink="http://www.w3.org/1999/xlink" width="2048" zoomAndPan="magnify" viewBox="0 0 1536 1097.999945" height="1464" preserveAspectRatio="xMidYMid meet" version="1.0"><defs><clipPath id="e46338c76d"><path d="M 737 12.949219 L 860 12.949219 L 860 1062.199219 L 737 1062.199219 Z M 737 12.949219 " clip-rule="nonzero"/></clipPath><clipPath id="8d04c46eed"><path d="M 221.664062 474 L 1314.414062 474 L 1314.414062 756 L 221.664062 756 Z M 221.664062 474 " clip-rule="nonzero"/></clipPath></defs><rect x="-153.6" width="1843.2" fill="#ffffff" y="-109.799994" height="1317.599934" fill-opacity="1"/><rect x="-153.6" width="1843.2" fill="#131313" y="-109.799994" height="1317.599934" fill-opacity="1"/><path fill="#ffffff" d="M 377.253906 330.628906 C 622.207031 398.558594 884.261719 549.28125 1024.042969 766.621094 C 1038.136719 788.484375 1050.933594 811.320312 1062.460938 834.617188 C 1080.734375 872.039062 1095.660156 911.058594 1106.464844 951.140625 C 1080.800781 872.148438 1040.773438 798.589844 990.691406 733.050781 C 842.144531 540.035156 605.546875 407.054688 377.253906 330.628906 Z M 377.253906 330.628906 " fill-opacity="1" fill-rule="nonzero"/><path fill="#ffffff" d="M 1231.152344 179.214844 C 1130.511719 215.609375 1038.3125 273.554688 953.667969 338.402344 C 787.953125 467.078125 655.613281 635.144531 556.355469 819.308594 C 551.421875 828.828125 538.777344 853.398438 533.847656 862.945312 C 528.179688 873.417969 523.222656 884.25 518.074219 894.996094 C 513.59375 904.558594 499.375 933.621094 495.402344 943.574219 C 490.253906 955.457031 479.066406 980.925781 473.835938 992.714844 C 495.496094 934.890625 520.898438 875.605469 548.582031 820.304688 C 555.628906 806.144531 570.324219 779.171875 577.863281 764.832031 C 601.410156 723.3125 626.113281 682.109375 653.441406 642.925781 C 656.871094 637.902344 665.351562 625.554688 668.671875 620.734375 C 672.03125 616.1875 691.558594 589.828125 695.382812 584.691406 C 701.472656 576.226562 711.117188 564.835938 717.605469 556.503906 C 724.160156 548.335938 733.5 536.496094 740.410156 528.78125 C 867.792969 378.496094 1041.90625 239.835938 1231.152344 179.214844 Z M 1231.152344 179.214844 " fill-opacity="1" fill-rule="nonzero"/><g clip-path="url(#e46338c76d)"><path fill="#ffffff" d="M 741.859375 12.949219 C 739.15625 343.496094 774.210938 674.941406 845.449219 997.699219 C 849.121094 1013.609375 856.414062 1046.332031 859.910156 1062.324219 C 852.042969 1033.792969 841.734375 994.925781 834.125 966.355469 C 809.597656 868.121094 790.109375 765.566406 774.785156 665.667969 C 771.152344 638.722656 766.320312 602.378906 762.671875 575.296875 C 759.378906 544.71875 754.886719 506.875 752.210938 476.390625 C 738.5 322.941406 732.203125 166.742188 741.859375 12.949219 Z M 741.859375 12.949219 " fill-opacity="1" fill-rule="nonzero"/></g><g clip-path="url(#8d04c46eed)"><path fill="#ffffff" d="M 1314.285156 502.832031 C 1117.253906 464.402344 902.574219 480.023438 709.039062 530.527344 C 662.839844 542.644531 616.976562 557.230469 572.128906 573.6875 C 566.078125 576.007812 535.609375 587.644531 530.199219 589.734375 C 524.777344 592.027344 510.957031 597.914062 505.414062 600.261719 C 500.25 602.449219 485.652344 608.578125 480.585938 610.722656 C 474.65625 613.457031 446.25 626.730469 439.859375 629.679688 C 408.515625 644.621094 374.605469 662.335938 344.257812 679.570312 C 325.765625 689.347656 300.28125 705.285156 282.226562 716.074219 C 282.226562 716.074219 274.511719 720.71875 274.511719 720.71875 L 266.988281 725.664062 C 256.308594 732.722656 232.460938 748.238281 221.714844 755.1875 C 232.175781 747.71875 255.734375 730.785156 265.730469 723.777344 C 265.730469 723.777344 273.089844 718.574219 273.089844 718.574219 L 280.644531 713.65625 C 298.546875 702.089844 323.390625 685.402344 341.554688 674.980469 C 384.929688 648.59375 431.269531 624.585938 476.992188 602.882812 C 492.136719 596.179688 511.433594 587.671875 526.609375 581.046875 C 542.382812 574.957031 569.722656 563.621094 585.566406 558.128906 C 630.785156 541.5625 677.125 527.511719 723.734375 515.519531 C 822.925781 490.785156 925.453125 476.460938 1027.675781 474.316406 C 1123.808594 472.648438 1220.910156 479.179688 1314.285156 502.832031 Z M 1314.285156 502.832031 " fill-opacity="1" fill-rule="nonzero"/></g><path fill="#ffffff" d="M 769.324219 605.070312 L 764.160156 587.492188 C 761.46875 578.316406 757.019531 572.6875 750.558594 570.3125 C 735.058594 564.617188 712.917969 578.984375 712.699219 579.121094 L 703.414062 585.226562 L 704.300781 574.148438 C 706.855469 542.480469 682.285156 538.492188 679.472656 538.136719 L 670.800781 537.058594 L 675.582031 529.765625 C 700.546875 491.921875 671.46875 463.746094 670.214844 462.558594 L 640.414062 434.410156 L 676.496094 453.816406 C 697.785156 465.273438 715.789062 468.402344 729.976562 463.144531 C 745.695312 457.3125 751.472656 442.660156 751.542969 442.507812 L 756.144531 430.519531 L 761.539062 442.140625 C 765.746094 451.222656 771.5625 456.78125 778.855469 458.652344 C 791.871094 461.996094 807.753906 453.160156 812.78125 449.472656 L 827.871094 438.382812 L 821.042969 455.824219 C 816.960938 466.230469 816.753906 474.546875 820.429688 480.542969 C 826.097656 489.832031 839.710938 491.441406 839.847656 491.457031 L 867 494.199219 L 840.859375 502.054688 C 832.253906 504.636719 826.558594 509.167969 823.460938 515.886719 C 816.152344 531.746094 825.917969 554.292969 826.015625 554.511719 L 835.082031 575.105469 L 817.628906 560.917969 C 810.511719 555.125 804.191406 553.1875 798.316406 555.003906 C 785.617188 558.910156 776.863281 579.777344 774.554688 587.480469 Z M 742.582031 558.15625 C 746.53125 558.15625 750.476562 558.730469 754.257812 560.109375 C 760.351562 562.335938 765.292969 566.339844 769.050781 572.074219 C 773.898438 561.914062 782.449219 548.582031 795.109375 544.664062 C 800.53125 542.984375 806.089844 543.132812 811.726562 545.101562 C 809.597656 535.554688 808.464844 522.621094 813.597656 511.421875 C 816.085938 506 819.757812 501.519531 824.59375 498.023438 C 819.730469 495.621094 814.652344 491.921875 811.183594 486.238281 C 807.507812 480.214844 806.238281 473.101562 807.386719 464.960938 C 799.066406 468.71875 787.472656 472.089844 776.164062 469.179688 C 768.367188 467.171875 761.851562 462.542969 756.703125 455.386719 C 752.46875 461.425781 745.257812 469.003906 733.964844 473.25 C 721.183594 478.058594 706.335938 477.5 689.660156 471.597656 C 696.460938 485.078125 701.3125 505.5625 688.460938 529.382812 C 698.101562 532.890625 713.519531 542.097656 715.199219 565.355469 C 722.082031 562.023438 732.296875 558.15625 742.582031 558.15625 Z M 742.582031 558.15625 " fill-opacity="1" fill-rule="nonzero"/><path fill="#ffffff" d="M 780.890625 693.402344 L 774.636719 666.199219 C 769.597656 644.25 759.585938 630.0625 744.902344 624.027344 C 713.070312 610.929688 668.453125 638.773438 668 639.046875 L 656.148438 646.546875 L 659.859375 633.027344 C 666.964844 607.171875 665.078125 588.597656 654.25 577.835938 C 632.777344 556.476562 582.453125 570.269531 581.949219 570.40625 L 557.636719 577.222656 L 577.003906 561.023438 C 606.914062 536.003906 621.101562 510.195312 619.175781 484.328125 C 615.871094 439.832031 565.789062 408.75 565.273438 408.449219 L 525.378906 384.082031 L 569.777344 398.65625 C 610.476562 412.011719 646.175781 410.863281 675.921875 395.253906 C 723.570312 370.234375 740.070312 315.839844 740.234375 315.292969 L 745.628906 296.992188 L 750.667969 315.386719 C 756.59375 337.035156 768.777344 352.523438 786.859375 361.441406 C 837.210938 386.28125 917.789062 353.96875 918.59375 353.640625 L 934.042969 347.347656 L 925.246094 361.523438 C 906.058594 392.484375 900.144531 419.222656 907.710938 441.019531 C 917.105469 468.144531 944.488281 478.359375 944.761719 478.453125 L 957.875 483.222656 L 944.996094 488.574219 C 917.953125 499.800781 899.777344 516.421875 890.96875 537.984375 C 876.585938 573.152344 891.976562 610.230469 892.128906 610.601562 L 898.546875 625.746094 L 884.382812 617.402344 C 859.570312 602.789062 838.550781 599.347656 821.929688 607.1875 C 792.703125 620.953125 785.316406 665.378906 785.246094 665.832031 Z M 725.675781 609.660156 C 733.582031 609.660156 741.503906 610.886719 749 613.972656 C 762.453125 619.492188 772.628906 630.128906 779.386719 645.699219 C 784.917969 629.625 796.089844 607.40625 817.285156 597.394531 C 834.453125 589.296875 854.804688 590.730469 877.898438 601.65625 C 873.976562 586.414062 870.261719 560.125 880.902344 533.996094 C 889.628906 512.582031 906.234375 495.59375 930.367188 483.371094 C 919.894531 477.15625 904.570312 465.015625 897.480469 444.585938 C 889.929688 422.773438 893.683594 397.304688 908.667969 368.71875 C 882.1875 377.308594 824.046875 391.855469 782.105469 371.191406 C 765.390625 362.957031 753.042969 349.980469 745.285156 332.527344 C 736.832031 351.703125 717.5625 385.613281 681.085938 404.816406 C 655.230469 418.417969 625.5 422.078125 592.421875 415.769531 C 608.402344 430.394531 627.78125 453.941406 629.992188 483.480469 C 631.863281 508.378906 621.183594 532.78125 598.214844 556.246094 C 617.074219 553.816406 645.316406 553.664062 661.894531 570.132812 C 673.792969 581.949219 677.546875 599.988281 673.121094 623.847656 C 685.113281 617.878906 705.296875 609.660156 725.675781 609.660156 Z M 725.675781 609.660156 " fill-opacity="1" fill-rule="nonzero"/><path fill="#ffffff" d="M 796.226562 779.253906 L 789.632812 761.363281 C 776.261719 725.074219 755.679688 702.050781 728.488281 692.925781 C 677.65625 675.882812 619.421875 712.6875 618.835938 713.054688 L 608.90625 719.433594 L 610.53125 707.742188 C 615.339844 673.109375 608.703125 647.285156 590.785156 630.992188 C 552.804688 596.4375 475.84375 614.152344 475.082031 614.34375 L 439.40625 622.78125 L 471.105469 604.359375 C 515 578.863281 540.457031 546.984375 546.765625 509.632812 C 557.910156 443.695312 505.671875 381.9375 505.140625 381.324219 L 498.050781 373.074219 L 508.894531 372.378906 C 588.75 367.21875 646.476562 329.714844 680.851562 299.164062 C 718.257812 265.910156 736.941406 233.40625 737.132812 233.089844 L 741.054688 226.195312 L 746.066406 232.351562 C 833.496094 339.972656 999.964844 292.199219 1001.632812 291.707031 L 1018.414062 286.734375 L 1007.394531 300.324219 C 982.25 331.3125 971.914062 362.257812 976.636719 392.304688 C 984.492188 442.207031 1031.757812 473.511719 1032.238281 473.824219 L 1041.074219 479.574219 L 1031.253906 483.425781 C 979.683594 503.609375 951.125 541.671875 946.375 596.535156 C 942.769531 638.105469 954.839844 674.257812 954.964844 674.625 L 960.019531 689.523438 L 946.851562 680.921875 C 915.207031 660.21875 887.199219 654.714844 863.585938 664.558594 C 816.097656 684.363281 800.203125 759.820312 800.050781 760.570312 Z M 699.152344 677.507812 C 709.929688 677.507812 720.992188 678.980469 731.875 682.613281 C 758.328125 691.464844 779.035156 711.621094 793.578125 742.625 C 801.238281 717.753906 820.441406 670.800781 859.363281 654.550781 C 883.402344 644.511719 910.796875 647.925781 940.964844 664.667969 C 937.46875 649.851562 933.113281 624.351562 935.53125 595.945312 C 938.847656 556.847656 956.113281 505.34375 1018.375 477.089844 C 1003.515625 465.289062 972.597656 436.183594 965.929688 394.09375 C 961.316406 364.921875 969.316406 335.285156 989.722656 305.816406 C 972.488281 309.515625 941.988281 314.527344 906.414062 313.652344 C 837.15625 311.960938 780.6875 288.25 742.542969 244.984375 C 735.085938 256.429688 717.289062 281.246094 688.378906 307.015625 C 654.152344 337.511719 597.597656 374.660156 519.726562 382.402344 C 534.148438 402.042969 567.117188 454.390625 557.460938 511.464844 C 551.710938 545.46875 531.742188 575.09375 498.011719 599.785156 C 525.855469 597.011719 570.160156 597.597656 598.0625 622.945312 C 616.8125 639.992188 624.996094 665.378906 622.453125 698.5 C 637.109375 690.742188 666.855469 677.507812 699.152344 677.507812 Z M 699.152344 677.507812 " fill-opacity="1" fill-rule="nonzero"/><path fill="#ffffff" d="M 811.753906 859.449219 L 805.964844 849.558594 C 782.722656 809.859375 751.773438 784.839844 714 775.195312 C 642.09375 756.839844 568.453125 800.394531 567.714844 800.832031 L 558.28125 806.511719 L 559.535156 795.574219 C 565.164062 746.542969 555.34375 708.441406 530.378906 682.339844 C 488.300781 638.339844 416.328125 642.832031 415.617188 642.886719 L 399.28125 644.035156 L 411.710938 633.367188 C 463.992188 588.460938 482.210938 527.414062 465.847656 451.890625 C 453.503906 394.886719 425.027344 350.636719 424.753906 350.199219 L 420.082031 343.015625 L 428.578125 341.871094 C 545.25 326.136719 622.234375 265.882812 666.265625 218.109375 C 714.121094 166.183594 734.578125 117.304688 734.769531 116.8125 L 738.71875 107.226562 L 744.34375 115.941406 C 802.304688 205.789062 887.472656 237.203125 948.695312 247.730469 C 1015.234375 259.175781 1068.511719 249.191406 1069.042969 249.097656 L 1081.796875 246.636719 L 1074.585938 257.441406 C 1041.78125 306.550781 1036.851562 357.808594 1059.917969 409.773438 C 1077.304688 448.953125 1104.945312 473.921875 1105.21875 474.167969 L 1111.640625 479.902344 L 1103.691406 483.222656 C 1044.472656 507.914062 1009.46875 557.417969 999.652344 630.375 C 992.261719 685.304688 1002.683594 733.363281 1002.792969 733.84375 L 1005.058594 744.085938 L 995.390625 740.015625 C 965.042969 727.261719 936.035156 726.699219 909.1875 738.335938 C 847.320312 765.160156 816.070312 847.90625 815.757812 848.738281 Z M 676.152344 759.75 C 689.332031 759.75 702.9375 761.183594 716.605469 764.667969 C 754.328125 774.269531 785.601562 797.910156 809.707031 834.960938 C 820.347656 811.101562 851.417969 751.515625 904.84375 728.339844 C 931.761719 716.660156 960.496094 716.035156 990.378906 726.441406 C 987.589844 709.261719 983.152344 671.441406 988.875 628.886719 C 998.679688 556 1034.296875 503.460938 1092.054688 476.445312 C 1082.5625 466.628906 1063.675781 444.832031 1050.140625 414.5 C 1033.929688 378.183594 1023.019531 322.898438 1059.183594 261.496094 C 1039.449219 263.929688 997.179688 267.054688 946.839844 258.398438 C 885.355469 247.828125 800.53125 216.867188 740.644531 129.953125 C 732.449219 146.75 711.746094 184.636719 674.515625 225.113281 C 630.28125 273.214844 553.675781 333.578125 438.164062 351.414062 C 446.878906 366.410156 466.378906 403.410156 476.363281 449.269531 C 492.371094 522.757812 476.078125 585.609375 429.234375 631.945312 C 453.734375 632.792969 504.019531 639.144531 538.164062 674.789062 C 563.703125 701.449219 574.816406 739.003906 571.28125 786.558594 C 588.925781 777.558594 629.761719 759.75 676.152344 759.75 Z M 676.152344 759.75 " fill-opacity="1" fill-rule="nonzero"/></svg>