<svg xmlns="http://www.w3.org/2000/svg" xmlns:xlink="http://www.w3.org/1999/xlink" width="2048" zoomAndPan="magnify" viewBox="0 0 1536 1097.999945" height="1464" preserveAspectRatio="xMidYMid meet" version="1.0"><defs><clipPath id="3ba1d8dc0c"><path d="M 317.054688 86.308594 L 1219 86.308594 L 1219 988.558594 L 317.054688 988.558594 Z M 317.054688 86.308594 " clip-rule="nonzero"/></clipPath></defs><rect x="-153.6" width="1843.2" fill="#ffffff" y="-109.799994" height="1317.599934" fill-opacity="1"/><rect x="-153.6" width="1843.2" fill="#131313" y="-109.799994" height="1317.599934" fill-opacity="1"/><g clip-path="url(#3ba1d8dc0c)"><path fill="#ffffff" d="M 1032.457031 794.035156 L 974.304688 735.882812 C 975.132812 638.546875 1053.800781 545.414062 1056.140625 542.679688 L 1133.851562 542.679688 C 1109.320312 576.050781 1037.378906 682.855469 1032.457031 794.035156 Z M 924.398438 802.335938 C 853.800781 813.109375 802.125 843.464844 773.425781 890.617188 L 773.425781 817.628906 C 814.152344 725.992188 949.652344 741 966.304688 743.234375 L 1022.730469 799.664062 C 1002.589844 797.816406 965.429688 796.070312 924.398438 802.335938 Z M 560.945312 789.738281 C 547.558594 789.738281 533.621094 791.007812 519.1875 793.742188 L 573.550781 739.382812 C 683.886719 710.320312 754.839844 807.492188 762.570312 818.691406 L 762.570312 897.257812 C 737.582031 866 665.855469 789.738281 560.945312 789.738281 Z M 507.980469 703.78125 C 499.589844 656.296875 474.511719 591.515625 403.976562 542.679688 L 479.902344 542.679688 C 480.265625 543.089844 480.667969 543.464844 481.15625 543.746094 C 590.40625 607.789062 569.160156 717.425781 565.84375 731.730469 L 510.167969 787.40625 C 512.421875 769.496094 514.222656 739.132812 507.980469 703.78125 Z M 461.734375 446.453125 C 497.910156 382.140625 504.3125 317.542969 480.859375 257.789062 L 537.425781 314.355469 C 596 417.441406 503.066406 513.539062 483.765625 531.824219 L 394.710938 531.824219 C 409.046875 518.316406 438.339844 488.03125 461.734375 446.453125 Z M 570.921875 259.574219 C 625.292969 260.089844 701.039062 243.957031 762.570312 166.898438 L 762.570312 250.3125 C 727.460938 298.351562 681.136719 322.699219 624.777344 322.699219 C 624.125 322.699219 623.464844 322.691406 622.804688 322.683594 C 582.328125 322.28125 550.316406 308.902344 544.949219 306.527344 L 483.78125 245.351562 C 503.734375 251.730469 534.660156 259.203125 570.921875 259.574219 Z M 1035.230469 262.34375 L 973.328125 324.257812 C 873.566406 349.902344 774.746094 246.855469 773.753906 245.816406 C 773.65625 245.710938 773.53125 245.632812 773.425781 245.535156 L 773.425781 159.183594 C 803.320312 186.851562 916.335938 282.140625 1035.230469 262.34375 Z M 921.871094 683.457031 C 921.886719 683.320312 921.917969 683.199219 921.917969 683.070312 C 921.652344 610.992188 978.875 544.148438 980.144531 542.679688 L 1042.117188 542.679688 C 1023.710938 565.945312 968.792969 641.910156 963.8125 725.398438 Z M 773.425781 744.351562 C 801.277344 682.265625 889.671875 686.078125 911.042969 687.96875 L 954.171875 731.101562 C 916.101562 728.222656 818.046875 727.964844 773.425781 795.085938 Z M 624.457031 688.46875 C 625.050781 688.507812 625.652344 688.492188 626.242188 688.332031 C 707.21875 666.296875 756 735.214844 762.570312 745.199219 L 762.570312 800.824219 C 741.933594 775.714844 689.6875 723.066406 614.414062 723.066406 C 605.796875 723.066406 596.867188 723.765625 587.65625 725.269531 Z M 563.929688 542.679688 C 631.71875 586.316406 624.019531 657.894531 620.539062 677.035156 L 578.835938 718.738281 C 582.8125 682.933594 581.941406 598.828125 499.742188 542.679688 Z M 595.324219 372.257812 C 642.363281 455.265625 561.105469 527.464844 557.613281 530.503906 C 557.179688 530.882812 556.839844 531.347656 556.550781 531.824219 L 499.125 531.824219 C 526.46875 503.320312 590.003906 424.714844 559.269531 336.199219 Z M 762.570312 326.28125 C 702.441406 407.09375 612.886719 369.050781 602.878906 364.460938 L 562.640625 324.21875 C 604.511719 336.335938 694.707031 349.410156 762.570312 267.941406 Z M 915.570312 382.011719 C 844.214844 397.113281 774.511719 322.636719 773.796875 321.863281 C 773.683594 321.734375 773.546875 321.652344 773.425781 321.539062 L 773.425781 260.765625 C 795.621094 281.84375 863.171875 339.335938 939.734375 339.328125 C 946.296875 339.328125 952.941406 338.871094 959.613281 337.960938 Z M 975.550781 531.824219 C 901.636719 473.898438 925.886719 391.261719 926.980469 387.714844 C 927.179688 387.070312 927.207031 386.417969 927.164062 385.765625 L 967.496094 345.433594 C 962.429688 381.898438 960.375 467.210938 1034.433594 531.824219 Z M 872.996094 634.574219 C 873.777344 594.320312 899.882812 554.867188 908.691406 542.679688 L 966.144531 542.679688 C 951.605469 561.359375 915.074219 613.765625 911.386719 672.964844 Z M 773.425781 675.363281 C 794.65625 636.695312 854.160156 640.855469 865.023438 641.957031 L 899.351562 676.28125 C 868.441406 675.113281 805.613281 678.726562 773.425781 722.800781 Z M 671.230469 641.699219 C 727.378906 627.363281 760.125 678.613281 761.5 680.816406 C 761.789062 681.285156 762.160156 681.679688 762.570312 682.039062 L 762.570312 727.402344 C 746.054688 707.800781 709.488281 673.222656 657.039062 673.222656 C 650.988281 673.222656 644.714844 673.683594 638.246094 674.679688 Z M 626.386719 542.679688 C 673.710938 573.484375 665.464844 624.8125 663.53125 634.050781 L 632.804688 664.777344 C 634.832031 635.996094 631.0625 581.601562 582.507812 542.679688 Z M 649.613281 426.542969 C 680.683594 481.742188 624.042969 529.242188 621.605469 531.246094 C 621.390625 531.421875 621.230469 531.625 621.050781 531.824219 L 571.765625 531.824219 C 589.835938 512.972656 635.132812 457.550781 615.917969 392.855469 Z M 762.570312 396.589844 C 722.792969 449.222656 664.554688 422.46875 657.230469 418.808594 L 620.246094 381.824219 C 653.113281 390.617188 714.941406 397.152344 762.570312 343.488281 Z M 868.402344 429.171875 C 821.542969 440.710938 776.59375 396.203125 773.425781 392.992188 L 773.425781 336.84375 C 792.539062 355.007812 844.828125 398.589844 902.867188 394.707031 Z M 848.425781 531.824219 C 824.472656 512.917969 831.402344 485.464844 833.203125 479.730469 L 862.746094 450.179688 C 860.984375 470.285156 863.855469 503.828125 894.429688 531.824219 Z M 822.238281 583.820312 C 823.433594 562.414062 843.082031 546.523438 848.28125 542.679688 L 895.402344 542.679688 C 884.742188 558.503906 866.46875 590 862.769531 624.347656 Z M 773.425781 608.496094 C 783.25 587.386719 807.804688 589.96875 814.09375 591.023438 L 853.414062 630.347656 C 832.847656 629.875 795.886719 632.820312 773.425781 656.90625 Z M 720.519531 592.414062 C 746.464844 586.074219 759.636719 604.074219 762.570312 608.761719 L 762.570312 664.484375 C 750.558594 650.679688 725.667969 628.320312 690.476562 628.320312 C 688.480469 628.320312 686.4375 628.410156 684.371094 628.5625 Z M 690.035156 542.679688 C 715.101562 558.078125 713.625 579.316406 712.753906 584.820312 L 675.785156 621.789062 C 676.71875 602.035156 673.265625 568.253906 644.320312 542.679688 Z M 696.632812 473.566406 C 711.097656 499.570312 694.320312 524.855469 688.980469 531.824219 L 636.652344 531.824219 C 650.457031 517.34375 676.140625 484.226562 668.109375 445.039062 Z M 762.570312 449.109375 C 741.695312 474.4375 710.390625 467.316406 703.914062 465.496094 L 674.644531 436.226562 C 697.570312 441.722656 733.320312 443.253906 762.570312 413.234375 Z M 825.734375 471.84375 C 800.289062 477.382812 774.308594 445.519531 774.050781 445.191406 C 773.867188 444.964844 773.640625 444.78125 773.425781 444.59375 L 773.425781 407.835938 C 787.753906 420.289062 819.46875 443.5 855.632812 441.941406 Z M 781.101562 531.824219 L 820.257812 492.675781 C 819.789062 503.921875 821.921875 518.757812 832.847656 531.824219 Z M 781.101562 542.679688 L 831.691406 542.679688 C 824.449219 549.910156 816.015625 560.773438 812.742188 574.320312 Z M 773.425781 550.359375 L 802.621094 579.550781 C 792.96875 580.058594 782.027344 582.96875 773.425781 590.582031 Z M 762.570312 550.359375 L 762.570312 592.1875 C 755.492188 585.988281 745.441406 580.691406 732.660156 580.265625 Z M 754.894531 542.679688 L 723.503906 574.070312 C 722.449219 565.085938 718.652344 553.339844 707.710938 542.679688 Z M 754.894531 531.824219 L 702.109375 531.824219 C 707.742188 522.660156 714.742188 507.382812 713.027344 489.949219 Z M 762.570312 524.148438 L 716.761719 478.339844 C 729.59375 479.054688 747.375 477.042969 762.570312 464.46875 Z M 773.425781 460.445312 C 782.171875 468.933594 797.335938 480.976562 814.519531 483.054688 L 773.425781 524.148438 Z M 911.378906 531.824219 C 911.132812 531.550781 910.863281 531.300781 910.558594 531.078125 C 861.621094 494.910156 873.503906 445.304688 875.925781 437 L 913.570312 399.355469 C 909.609375 426.421875 908.363281 485.289062 958.855469 531.824219 Z M 1037.164062 352.941406 C 1041.324219 403.371094 1061.515625 474.316406 1132.660156 531.824219 L 1051.546875 531.824219 C 954.207031 456.625 977.769531 345.152344 980.988281 331.941406 L 1042.015625 270.917969 C 1038.304688 289.011719 1034.308594 318.304688 1037.164062 352.941406 Z M 1213.511719 531.824219 L 1150.234375 531.824219 C 1149.992188 531.550781 1149.71875 531.300781 1149.414062 531.078125 C 1088.292969 485.902344 1054.1875 425.808594 1048.023438 352.460938 C 1043.832031 302.609375 1054.71875 263.25 1056.882812 256.042969 L 1086.867188 226.066406 C 1088.984375 223.949219 1088.984375 220.511719 1086.867188 218.390625 C 1084.742188 216.265625 1081.308594 216.265625 1079.191406 218.390625 L 1049.320312 248.253906 C 913.746094 283.535156 775.050781 145.78125 773.660156 144.386719 C 773.59375 144.308594 773.503906 144.265625 773.425781 144.195312 L 773.425781 91.738281 C 773.425781 88.738281 770.996094 86.308594 767.996094 86.308594 C 765 86.308594 762.570312 88.738281 762.570312 91.738281 L 762.570312 148.972656 C 714.25 215.832031 649.863281 249.40625 571.429688 248.714844 C 515.664062 248.238281 471.71875 229.726562 465.324219 226.902344 L 433.457031 195.035156 C 431.332031 192.917969 427.898438 192.917969 425.78125 195.035156 C 423.65625 197.15625 423.65625 200.59375 425.78125 202.710938 L 457.808594 234.738281 C 494.675781 299.441406 492.871094 368.785156 452.425781 440.855469 C 421.855469 495.304688 379.519531 530.921875 379.09375 531.269531 C 378.898438 531.4375 378.746094 531.632812 378.578125 531.824219 L 322.484375 531.824219 C 319.484375 531.824219 317.054688 534.253906 317.054688 537.253906 C 317.054688 540.25 319.484375 542.679688 322.484375 542.679688 L 384.066406 542.679688 C 446.699219 580.789062 484.769531 635.457031 497.214844 705.253906 C 505.769531 753.273438 498.648438 792.675781 497.03125 800.542969 L 449.136719 848.445312 C 447.011719 850.5625 447.011719 853.996094 449.136719 856.113281 C 450.191406 857.175781 451.582031 857.707031 452.972656 857.707031 C 454.359375 857.707031 455.75 857.175781 456.8125 856.113281 L 504.78125 808.144531 C 656.371094 767.847656 753.691406 902.445312 762.570312 915.304688 L 762.570312 982.765625 C 762.570312 985.765625 765 988.195312 767.996094 988.195312 C 770.996094 988.195312 773.425781 985.765625 773.425781 982.765625 L 773.425781 914.046875 C 829.074219 787.984375 1015.261719 809.328125 1035.0625 811.992188 L 1079.191406 856.113281 C 1080.246094 857.175781 1081.636719 857.707031 1083.023438 857.707031 C 1084.414062 857.707031 1085.804688 857.175781 1086.867188 856.113281 C 1088.984375 853.996094 1088.984375 850.5625 1086.867188 848.445312 L 1043.066406 804.644531 C 1043.679688 683.980469 1130.144531 565.207031 1147.417969 542.679688 L 1213.511719 542.679688 C 1216.511719 542.679688 1218.941406 540.25 1218.941406 537.253906 C 1218.941406 534.253906 1216.511719 531.824219 1213.511719 531.824219 " fill-opacity="1" fill-rule="nonzero"/></g></svg>